{"title":"The Year of Living Dangerously(1982)MPEG-4[DaScubaDude]","uid":15270215,"size":1133394387,"categoryP":"video","categoryS":"movies","magnet":"?xt=urn:btih:7da540edc0ac83a080a0a558fe4eda5af8241b9c&amp;dn=The+Year+of+Living+Dangerously%281982%29MPEG-4%5BDaScubaDude%5D&amp;tr=udp%3A%2F%2Ftracker.leechers-paradise.org%3A6969&amp;tr=udp%3A%2F%2Fzer0day.ch%3A1337&amp;tr=udp%3A%2F%2Fopen.demonii.com%3A1337&amp;tr=udp%3A%2F%2Ftracker.coppersurfer.tk%3A6969&amp;tr=udp%3A%2F%2Fexodus.desync.com%3A6969","seeders":1,"leechers":1,"uploader":"dascuba","files":1,"time":1468261374,"description":"The Year of Living Dangerously (1982)\r\nPG | 1h 55min | Drama, Romance, War | 18 February 1983 (USA)\r\nA young Australian reporter tries to navigate the political turmoil of Indonesia during the rule of President Sukarno with the help of a diminutive photographer.\r\nDirector: Peter Weir\r\nWriters: David Williamson (screenplay), Peter Weir (screenplay) |\r\nStars: Mel Gibson, Sigourney Weaver, Linda Hunt |\r\n\r\nGeneral\r\nComplete name                            : YearofLiving DangerouslyYEAR_LIVING_DANGEROUSLY_16X9LB_Title1.mp4\r\nFormat                                   : MPEG-4\r\nFormat profile                           : Base Media\r\nCodec ID                                 : isom (isom/iso2/avc1/mp41)\r\nFile size                                : 1.06 GiB\r\nDuration                                 : 1h 54mn\r\nOverall bit rate mode                    : Variable\r\nOverall bit rate                         : 1 318 Kbps\r\nMovie name                               : YEAR_LIVING_DANGEROUSLY_16X9LB\r\nWriting application                      : Lavf54.6.100\r\n\r\nVideo\r\nID                                       : 1\r\nFormat                                   : AVC\r\nFormat/Info                              : Advanced Video Codec\r\nFormat profile                           :   \r\nFormat settings, CABAC                   : No\r\nFormat settings, ReFrames                : 6 frames\r\nCodec ID                                 : avc1\r\nCodec ID/Info                            : Advanced Video Coding\r\nDuration                                 : 1h 54mn\r\nBit rate                                 : 1 198 Kbps\r\nWidth                                    : 720 pixels\r\nHeight                                   : 404 pixels\r\nDisplay aspect ratio                     : 16:9\r\nFrame rate mode                          : Constant\r\nFrame rate                               : 29.970 (30000/1001) fps\r\nColor space                              : YUV\r\nChroma subsampling                       : 4:2:0\r\nBit depth                                : 8 bits\r\nScan type                                : Progressive\r\nBits/(Pixel*Frame)                       : 0.137\r\nStream size                              : 983 MiB (91%)\r\n\r\nAudio\r\nID                                       : 2\r\nFormat                                   : AAC\r\nFormat/Info                              : Advanced Audio Codec\r\nFormat profile                           : LC\r\nCodec ID                                 : 40\r\nDuration                                 : 1h 54mn\r\nBit rate mode                            : Variable\r\nBit rate                                 : 113 Kbps\r\nMaximum bit rate                         : 127 Kbps\r\nChannel(s)                               : 2 channels\r\nChannel(s)_Original                      : 1 channel\r\nChannel positions                        : Front: C\r\nSampling rate                            : 44.1 KHz\r\nFrame rate                               : 43.066 fps (1024 spf)\r\nCompression mode                         : Lossy\r\nStream size                              : 92.7 MiB (9%)\r\nDefault                                  : Yes\r\nAlternate group                          : 1","torrent":{"xt":"urn:btih:7da540edc0ac83a080a0a558fe4eda5af8241b9c","amp;dn":"The+Year+of+Living+Dangerously%281982%29MPEG-4%5BDaScubaDude%5D","amp;tr":["udp%3A%2F%2Ftracker.leechers-paradise.org%3A6969","udp%3A%2F%2Fzer0day.ch%3A1337","udp%3A%2F%2Fopen.demonii.com%3A1337","udp%3A%2F%2Ftracker.coppersurfer.tk%3A6969","udp%3A%2F%2Fexodus.desync.com%3A6969"],"infoHash":"7da540edc0ac83a080a0a558fe4eda5af8241b9c","infoHashBuffer":{"type":"Buffer","data":[125,165,64,237,192,172,131,160,128,160,165,88,254,78,218,90,248,36,27,156]},"announce":[],"urlList":[]}}